<?xml version="1.0" encoding="utf-8"?>
<!-- Generator: Adobe Illustrator 17.0.2, SVG Export Plug-In . SVG Version: 6.00 Build 0)  -->
<!DOCTYPE svg PUBLIC "-//W3C//DTD SVG 1.1//EN" "http://www.w3.org/Graphics/SVG/1.1/DTD/svg11.dtd">
<svg version="1.1" id="Layer_1" xmlns="http://www.w3.org/2000/svg" xmlns:xlink="http://www.w3.org/1999/xlink" x="0px" y="0px"
	 width="177.7px" height="50.756px" viewBox="0 0 177.7 50.756" enable-background="new 0 0 177.7 50.756" xml:space="preserve">
<g>
	<g>
		<path fill="#FBF5E8" d="M144.653,27.678l-0.023-1.438l0.001-0.539l-0.058-0.146l0.056-0.014
			c-0.282-8.094-3.733-13.351-10.26-15.625c-8.937-3.113-17.857-2.058-26.041,3.077l-1.263,1.263
			c-2.88,4.593-0.037,8.141,1.178,9.656c0.104,0.13,0.229,0.286,0.345,0.435c-1.549,1.233-2.77,2.75-3.565,4.47
			c-0.05-0.915-0.188-1.784-0.336-2.546c-2.041-10.097-7.595-15.917-16.978-17.793c-1.213-0.243-2.478-0.366-3.759-0.366
			c-7.09,0-14.072,3.629-17.826,9.256c-2.895,3.915-4.048,8.512-3.524,14.048l0.133,0.841c-0.023,0.624,0.059,1.17,0.204,1.644
			c0.022,0.276,0.066,0.603,0.156,0.956c2.308,9.063,12.256,15.899,23.141,15.899c5.271,0,9.954-1.613,13.549-4.667
			c3.013-2.564,2.611-5.827,0.874-7.929c-0.202-0.244-0.443-0.671-0.687-1.128c1.379-0.443,2.509-1.194,3.375-2.246
			c0.068-0.083,0.127-0.168,0.19-0.253c-0.317,3.779,0.697,7.11,3.068,9.923l0.543,0.531l1.182,0.969
			c0.884,0.727,1.768,1.453,2.669,2.157c2.001,1.562,4.293,2.354,6.812,2.354c2.138,0,4.123-0.561,5.874-1.055
			c2.112-0.598,3.965-1.084,5.272-0.472c1.265,0.593,2.722,0.881,4.453,0.881c1.013,0,1.985-0.092,2.926-0.181
			c0.795-0.075,1.546-0.146,2.188-0.146l0.226,0.001c1.817,0,3.292-0.557,4.382-1.656c0.742-0.75,1.624-2.104,1.604-4.3
			c-0.037-3.846-0.05-7.692-0.063-11.538L144.653,27.678z M69.892,30.47l-0.239-0.433c0.138,0.131,0.26,0.269,0.368,0.41
			L69.892,30.47z M70.027,30.713l0.166-0.016c0.245,0.388,0.393,0.793,0.469,1.163L70.027,30.713z M111.485,34.119l-0.624-0.59
			l0.761,0.35C111.583,33.963,111.538,34.044,111.485,34.119z M124.541,37.53c0.042,0.015,0.084,0.03,0.127,0.046l0.177,0.531
			C124.724,37.922,124.624,37.728,124.541,37.53z"/>
		<path fill="#FBF5E8" d="M61.196,19.993l-0.438-0.389l0.405-0.115c-0.658-5.058-3.447-8.678-7.855-10.193
			c-5.823-2.001-11.52-1.192-16.559,2.325c-3.17-2.698-6.991-3.27-10.443-3.425c-2.388-0.109-4.47,0.742-6.099,1.418
			c-0.908,0.377-1.771,0.735-2.444,0.821c-0.663-0.432-1.438-0.728-2.321-0.886c-1.169-0.604-2.542-0.899-4.17-0.899
			c-1.348,0-2.688,0.195-3.983,0.384c-0.965,0.14-1.876,0.273-2.618,0.296L1.2,11.583c-1.457,3.002-1.25,5.937-1.083,8.297
			c0.07,0.987,0.136,1.92,0.073,2.721l-0.012,0.312L0.18,34.83l-0.005,6.301l0.002,0.351c-0.399,2.384,0.009,4.342,1.218,5.824
			c0.842,1.033,2.453,2.265,5.343,2.265c0.377,0,0.781-0.021,1.214-0.063c1.612-0.163,3.383-0.165,5.75,0.002
			c0.253,0.018,0.495,0.026,0.722,0.026c1.893,0,3.427-0.588,4.559-1.746c1.784-1.826,1.727-4.323,1.708-5.143
			c-0.002-0.088-0.004-0.175-0.006-0.263c0.287,1.938,0.884,3.405,2.123,4.657c2.397,2.422,5.612,2.44,11.447,2.474l0.184,0.001
			c0.779,0,3.15,0,4.887-1.771c0.954-0.973,1.369-2.11,1.546-3.062c0.239,0.844,0.635,1.688,1.265,2.461
			c0.94,1.153,2.737,2.528,5.959,2.528c0.682,0,1.425-0.062,2.208-0.184c0.444-0.068,0.95-0.101,1.593-0.101
			c0.591,0,1.185,0.025,1.778,0.051c0.555,0.022,1.109,0.045,1.661,0.054h0.121c2.143,0,3.47-0.881,4.206-1.621
			c0.743-0.746,1.626-2.098,1.615-4.299c-0.03-5.895-0.047-11.79-0.063-17.685L61.196,19.993z M12.609,16.344l1.447,1.081
			C13.708,17.367,13.027,17.031,12.609,16.344z"/>
		<path fill="#FBF5E8" d="M177.408,41.574c-0.029-0.172-0.053-0.347-0.077-0.521c-0.117-0.828-0.274-1.938-0.798-3.062
			c-0.018-0.15-0.021-0.309-0.031-0.466c-0.318-5.022-3.306-6.195-5.457-6.378c-0.021-0.729-0.094-1.435-0.164-2.103
			c-0.039-0.377-0.089-0.861-0.113-1.276c0.332,0.001,0.718,0.027,1.141,0.077l0.494,0.03c0.816,0,2.028-0.241,3.164-1.388
			c0.475-0.479,1.576-1.784,1.56-3.572c-0.025-2.451-0.101-4.921-0.174-7.31l-0.062-2.058l-1.124-2.666
			c-1.235-1.277-2.824-1.924-4.724-1.924c-0.099,0-0.197,0.002-0.294,0.005c0.087-0.003-0.204-3.331-0.301-3.676
			c-1.372-4.886-5.026-5.132-9.298-5.272c-1.927-0.063-3.918,0.06-5.773,0.62c-4.201,1.268-4.672,4.456-4.708,8.34
			c-2.324,0.114-3.757,1.25-4.56,2.212l0.014,0.171l-0.138-0.001c-0.291,0.391-0.529,0.813-0.707,1.254l-0.288,1.37l-0.059,1.956
			c-0.023,0.347-0.007,0.691,0.047,1.038c0.056,0.391-0.04,1.389-0.109,2.117c-0.22,2.297-0.468,4.899,1.287,6.858
			c0.937,1.045,2.248,1.632,3.693,1.653c0.267,0.004,0.483,0.018,0.657,0.035c0,0.293-0.01,0.624-0.018,0.886
			c-0.016,0.508-0.029,1.025-0.019,1.54l-0.009,2.044c-0.343,6.039,1.15,11.01,4.323,14.381c2.615,2.779,6.168,4.248,10.275,4.248
			c2.617,0,5.403-0.602,8.279-1.79C178.276,46.911,177.945,43.345,177.408,41.574z"/>
	</g>
	<path fill="#F95220" d="M86.944,13.462c-6.427-1.285-13.956,1.837-17.526,7.268c1.172,0.66,1.634-0.409,2.249-0.975
		c2.828-2.603,5.994-4.417,10.268-4.625c-1.133,0.638-2.067,0.637-2.972,0.767c-0.852,0.122-1.669,0.306-2.43,0.772
		c-2.55,1.563-4.648,3.621-6.37,6.024c-1.13,1.576-1.701,3.554-2.059,5.363c-0.298,1.504-0.663,2.816-1.503,4.045
		c0.055,0.322,0.111,0.643,0.166,0.965c0.026,0.314-0.138,0.658,0.148,0.931l0.005,0.026c0.896,0.072,1.453,0.464,1.557,1.439
		c0.408,3.812,3.379,5.804,5.843,8.151c0.224,0.214,0.532,0.311,0.84,0.351c2.069,0.264,4.148,0.476,5.887,1.827
		c0.283,0.22,0.704,0.191,1.062,0.278c1.294,0.317,2.549-0.055,3.826-0.141c2.465-0.166,4.847-0.758,7.253-1.219
		c1.927-0.369,3.015-1.517,2.936-2.804c-0.114-1.85-3.053-4.027-4.69-3.223c-0.906,0.445-1.793,0.444-2.653,0.57
		c-2.098,0.306-4.225,0.444-6.265-0.552c-0.659-0.322-0.989-0.983-1.796-1.186c-1.28-0.323-2.301-2.18-2.179-3.503
		c0.053-0.582,0.285-1.234,0.962-1.103c1.884,0.366,3.875-0.961,5.694,0.401c0.272,0.204,0.718,0.002,1.083-0.009
		c2.981-0.094,5.952-0.952,8.949-0.096c0.584,0.167,1.213,0.19,1.831,0.109c1.532-0.201,2.575-1.127,2.589-2.645
		c0.029-2.975-0.941-5.746-1.747-8.072c0.729,0.969,0.864,2.662,1.427,4.198c0.234,0.639,0.177,1.768,1.456,1.335
		C99.05,19.535,94.802,15.034,86.944,13.462z M86.878,26.647c-2.061,0.018-4.123,0.037-6.183-0.011
		c-0.602-0.014-1.569,0.182-1.095-1.04c1.328-2.195,3.283-3.094,5.757-2.496c1.598,0.386,3.244,0.943,3.206,3.115
		C88.113,26.79,87.465,26.642,86.878,26.647z"/>
	<path fill="#F95220" d="M139.209,35.772c-0.481-3.227,0.23-6.284,0.168-9.418c-0.071-3.554-1.146-6.358-4.057-8.502
		c-1.759-1.296-3.427-2.562-5.79-2.132c-0.362,0.066-0.726-0.139-1.023-0.365c-0.969-0.74-1.929-0.498-2.956-0.094
		c-1.721,0.677-3.627,1.158-5.361,0.802c-2.033-0.418-3.627-0.018-5.178,1.122c-0.705,0.518-1.457,0.878-2.297,1.131
		c-1.567,0.474-1.664,0.837-0.709,2.172c0.178,0.25,0.392,0.474,0.544,0.743c1.608,2.851,1.608,2.851,4.518,1.372
		c0.11-0.056,0.227-0.104,0.321-0.181c0.899-0.728,2.026-0.873,3.084-1.155c1.067-0.284,2.357,0.389,3.258-0.26
		c1.868-1.345,0.928,1.401,1.953,1.223c0.257-0.045,0.626,0.102,0.861,0.284c0.988,0.763,1.924,1.572,1.322,3.036
		c0.07,0.143,0.14,0.285,0.211,0.428l-0.037,0.181l0.158,0.095c0.02,0.317,0.041,0.635,0.061,0.952
		c1.602,0.528,0.869,1.682,0.491,2.48c-0.445,0.94-1.325,0.698-1.955,0.077c-0.458-0.452-0.896-0.917-1.56-0.815
		c-1.211,0.185-2.195-0.049-3.262-0.768c-0.7-0.471-2.207-0.76-2.691-0.471c-1.605,0.956-3.506,0.037-5.1,1.306
		c-1.558,1.241-3.15,2.466-4.703,3.727c-0.281,0.229-0.352,0.627-0.392,1.008c-0.325,3.099-0.016,6.155,0.6,9.191
		c1.85,0.004,3.373,0.926,4.872,1.829c1.93,1.162,3.832,1.483,6.112,0.957c1.982-0.457,3.603-1.536,5.41-2.267
		c1.012-0.41,1.681-0.461,2.348,0.511c0.961,1.4,2.648,1.82,3.945,1.333c1.75-0.658,3.33-0.458,5.016-0.232
		c0.895,0.12,1.345-0.243,1.77-1.155C140.433,41.182,139.593,38.35,139.209,35.772z M128.163,37.339
		c-0.41,1.194-1.405,1.663-2.514,1.813c-1.204,0.163-2.444,0.154-3.65,0.012c-1.654-0.194-2.35-1.305-1.959-2.905
		c2.298-3.015,4.982-1.852,7.665-0.71c0.346,0.128,0.265,0.527,0.473,0.743c0.016,0.237,0.032,0.474,0.049,0.71
		C128.314,37.136,128.293,37.249,128.163,37.339z"/>
	<path fill="#F95220" d="M54.668,17.414c0.011-0.096-0.137-0.207-0.252-0.253c-2.117-0.847-3.978-2.536-6.561-1.83
		c-0.932,0.255-1.939,0.351-2.914,0.016c-0.49-0.168-1.063-0.195-1.416,0.141c-1.524,1.454-3.708,1.872-5.183,3.413
		c-1.125,1.176-2.556,1.042-3.66-0.206c-0.326-0.369-0.619-0.765-0.908-1.162c-1.362-1.869-4.277-2.89-6.577-2.43
		c-1.966,0.393-3.868,1.255-5.966,0.844c-0.718-0.141-1.193,0.474-1.767,0.826c-1.167,0.715-1.816,2.255-3.463,2.206
		c-0.116,0.006-0.117,0.224-0.274,0.146c0.079-0.154,0.153-0.311,0.188-0.477c-0.035-1.765-1.039-2.617-2.691-2.921
		c-1.465-0.27-2.919-0.181-4.376,0.01C5.084,16.227,4.773,16.63,5.3,20.334c0.198,1.389,0.539,2.813-1.101,3.642
		c0,0.522,0,1.044,0,1.567c0.118,0.492,1.218,0.428,0.868,0.891c-1.038,1.37-0.645,2.83-0.167,4.057
		c0.548,1.404-0.037,2.974,0.9,4.261c0.236,0.324-0.164,0.522-0.469,0.592c-0.423,0.097-0.841,0.185-1.13,0.549
		c0,0.243,0,0.485,0,0.728c0.335,0.747,2.152,0.591,1.385,1.906c-0.821,1.407-0.739,2.721-0.431,4.211
		c0.505,2.44,0.863,2.778,3.339,2.857c1.606,0.051,3.116-0.228,4.68-0.584c1.951-0.444,2.543-0.773,2.315-2.743
		c-0.528-4.571-0.648-9.153-0.018-13.698c0.231-1.668,0.162-3.787,2.288-4.628c1.092-0.432,2.228-0.651,3.42-0.592
		c1.297,0.064,2.273,0.474,2.46,1.926c0.287,0.706,0.575,1.411,0.862,2.116c0.697,1.495,1.592,2.974,1.316,4.698
		c-0.559,3.492,0.014,6.967,0.072,10.446c0.037,2.208,2.426,3.547,4.39,2.563c0.743-0.372,1.277-0.394,2.035-0.106
		c1.524,0.581,2.621-0.018,3.166-1.565c0.318-0.902,0.239-1.814,0.007-2.721c-0.317-1.241-0.663-2.422,0.074-3.713
		c0.412-0.723,0.198-1.682-0.141-2.507c-0.16-0.39-0.508-0.76-0.341-1.206c0.775-2.064,0.57-4.178,0.349-6.29
		c-0.051-0.49,0.121-0.841,0.441-1.145c1.365-1.299,2.64-2.615,4.786-2.704c2.283-0.095,4.59,1.395,5.009,3.633
		c0.272,1.455,0.089,2.942,0.61,4.412c0.35,0.987-0.202,2.037-1.457,2.349c0,0.782-0.001,1.564-0.001,2.346
		c2.034,0.638,2.06,0.771,0.481,2.428c-0.165,0.173-0.321,0.356-0.479,0.537c0.001,0.807,0.001,1.614,0.002,2.421
		c0.324,0.014,0.609-0.068,0.816-0.336c-0.295,1.12,0.924,1.651,1.019,2.671c0.084,0.904,0.843,1.33,1.736,1.328
		c0.744-0.001,1.472,0,2.165,0.321c0.144,0.066,5.063-2.071,5.144-2.209c0.161-0.27,0.204-0.574,0.252-0.879
		c0.326-2.076,0.195-4.198-0.026-6.228c-0.147-1.345,1.116-3.111-0.784-4.167c-0.144-0.08,0.187-0.182,0.295-0.276
		c0.735-0.639,0.677-1.516,0.764-2.373c0.193-1.899-0.238-3.846,0.054-5.67C56.635,21.081,54.428,19.608,54.668,17.414z"/>
	<polygon fill="#F95220" points="109.689,42.948 109.687,42.94 109.681,42.94 	"/>
	<path fill="#F95220" d="M172.869,40.622c-0.805-1.547,0.514-4.593-2.711-4.436c-1.82,0.089-2.799-0.465-3.254-2.142
		c-0.499-0.196-0.889-0.264-1.066-1.042c-0.595-2.62-0.144-5.354-0.984-7.93c-0.168-0.516-0.125-0.523,0.218-0.481
		c0.256,0.031,0.508-0.048,0.684-0.215c0.948-0.901,2.069-0.841,3.272-0.77c1.51,0.09,2.956-1.403,2.65-2.85
		c-0.257-1.22-0.114-2.284,0.27-3.402c0.159-0.462,0.233-1.009-0.183-1.384c-0.52-0.469-1.019-0.202-1.472,0.201
		c-0.119,0.132-0.16,0.119-0.116-0.034c-0.141-0.879-0.73-0.799-1.387-0.651c-2.42,0.543-2.393,0.53-3.012-1.826
		c-0.196-0.745-0.072-1.444-0.054-2.175c0.055-2.343-0.332-4.275-3.041-4.299c-0.303-0.003-0.585-0.259-0.874-0.266
		c-1.622-0.036-3.437-0.729-4.79,0.43c-1.25,1.07-1.99,2.55-1.438,4.434c0.203,0.695,0.007,1.569,0.07,2.367
		c0.087,1.102-0.383,1.787-1.585,1.74c-0.932-0.037-1.838,0.152-2.741,0.311c-1.519,0.267-1.981,0.954-1.61,2.472
		c0.222,0.909,0.36,1.769,0.178,2.715c-0.288,1.499,0.179,2.107,1.742,1.979c1.388-0.114,2.172,0.585,2.967,1.478
		c0.833,0.935,1.753,1.804,0.706,3.185c-0.252,0.332-0.103,0.879,0.107,1.243c0.651,1.125-0.11,1.472-0.924,1.819
		c-0.003,0.735-0.006,1.47-0.009,2.205c0.733,0.741,1.166,1.596,0.832,2.651c-0.742,2.344,0.635,4.374,0.974,6.555
		c0.106,0.685,0.702,1.365,1.41,1.614c2.247,0.789,4.436,1.866,6.95,1.505c0.78-0.112,1.591-0.031,2.379,0.114
		c2.785,0.512,4.628-0.975,4.709-3.803c0.602,0.57,0.272,2.135,1.813,1.704C173.337,42.624,173.329,41.506,172.869,40.622z"/>
	<path fill="#F95220" d="M113.608,16.565c7.55-3.043,14.972-3.575,22.267,0.773c3.603,2.147,3.182,6.272,4.776,9.404
		c-0.19-5.475-2.015-10.048-7.578-11.987c-7.908-2.756-15.49-1.772-22.599,2.688C111.809,18.216,112.617,16.965,113.608,16.565z"/>
	<path fill="#F95220" d="M5.087,14.638c3.719,1.604,8.973-2.622,11.618,3.063c0.417-0.21,0.875-0.366,1.246-0.639
		c4.185-3.076,13.297-4.727,17.288,1.048c0.815,1.18,1.449,1.038,1.715-0.402c-0.443-0.121-1.083-0.094-1.298-0.384
		c-2.397-3.225-5.677-3.897-9.509-4.07c-4.087-0.184-7.397,4.36-12.21,1.096c-2.076-1.408-6.022-0.057-9.118,0.041
		C4.908,14.476,4.982,14.593,5.087,14.638z"/>
	<path fill="#F95220" d="M113.431,27.91c4.643-1.204,9.091-1.314,13.33,1.324c0.394,0.245,1.006,0.141,1.516,0.198
		c-0.034-0.312-0.067-0.624-0.101-0.937c-0.538-0.211-1.118-0.352-1.608-0.643c-6.887-4.094-16.858-1.359-18.366,5.054
		C109.944,31.249,110.666,28.627,113.431,27.91z"/>
	<path fill="#F95220" d="M89.534,36.882c-3.275,1.509-7.223,1.947-9.39-2.481c-1.4,0.033-0.954,0.805-0.496,1.412
		c1.293,1.713,3.099,2.715,5.198,2.621c4.51-0.202,9.639-3.028,12.399,3.297c0.024,0.056,0.23,0.032,0.351,0.045
		C95.494,39.24,95.2,34.271,89.534,36.882z"/>
	<path fill="#F95220" d="M52.028,14.142c-5.539-1.904-10.451-0.574-14.774,3.249c3.33-0.895,6.106-3.301,9.789-3.319
		c5.092-0.025,8.192,2.616,10.174,6.997C56.79,17.783,55.243,15.247,52.028,14.142z"/>
	<path fill="#F95220" d="M154.727,5.959c3.954,0.008,7.908,0.016,11.862,0.024C162.638,4.756,158.684,4.777,154.727,5.959z"/>
	<path fill="#F95220" d="M172.669,15.898c0.081-0.391,0.162-0.781,0.244-1.172c-1.705-1.761-4.337,0.576-6.002-1.36
		c-0.104,0.299-0.373,0.795-0.286,0.867C168.376,15.702,171.038,13.895,172.669,15.898z"/>
	<path fill="#F95220" d="M154.657,13.483c-1.539,1.596-3.966-0.455-5.459,1.331C150.963,14.148,153.448,16.433,154.657,13.483z"/>
	<path fill="#F95220" d="M4.199,42.898c0.273-0.092,0.546-0.184,0.819-0.276c-0.274-0.151-0.549-0.303-0.823-0.454
		C4.196,42.412,4.198,42.655,4.199,42.898z"/>
	<path fill="#F95220" d="M140.674,28.804c-0.008-0.5-0.016-1-0.024-1.5C139.929,27.816,139.642,28.321,140.674,28.804z"/>
	<path fill="#F95C27" d="M140.651,27.303c0-0.187,0-0.373,0.001-0.56c-0.316-1.481-0.402-2.128-0.635-3.187
		c-0.609-2.768-1.733-5.222-4.194-6.811c-5.904-3.811-12.267-3.438-18.744-1.982c-2.356,0.53-4.307,2.022-6.603,2.681
		c-0.161,2.63,1.589,4.862,2.323,7.313c0.482,1.61,1.823,0.514,2.902,0.08c4.143-1.668,8.371-3.846,12.168,0.714
		c0.923-0.002,1.474-0.783,0.86-1.238c-1.808-1.34-1.315-5.287-5.747-3.974c-2.799,0.829-5.551,1.792-8.343,2.623
		c-1.847,0.55-0.812-3-2.772-3.338c0.168-0.235,0.338-0.676,0.504-0.674c2.925,0.022,4.605-3.047,8.424-2.267
		c3.044,0.622,6.944-0.781,10.595-0.428c3.58,0.346,7.767,6.426,7.405,9.907c-0.462,4.44,0.052,8.983,0.158,13.481
		c0.055,2.319,0.758,5.197-3.178,4.578c-2.645-0.416-6.079,2.328-7.847-1.838c-0.46-1.084-0.637-0.13-1.114,0.04
		c-3.428,1.227-6.353,4.11-10.679,2.398c-2.005-0.794-3.646-3.659-6.442-1.889c0.428-1.348,0.144-2.579-0.097-3.984
		c-0.755-4.398,0.722-8.004,5.438-9.231c0.858-0.223,0.905-1.757,2.904-1.011c1.762,0.658,1.597-1.162,3.204,0.466
		c0.956,0.968,3.672-0.079,5.178,1.256c0.85,0.754,2.066,0.701,2.338,0.282c0.649-0.998,1.106-2.314,1.082-3.491
		c-0.017-0.839-0.953-0.206-1.48-0.016c-0.028,0.43-0.057,0.86-0.085,1.29c-0.602,1.034-1.169,0.162-1.659-0.089
		c-3.775-1.938-7.667-2.327-11.805-1.329c-3.291,0.794-5.186,2.943-6.51,5.829l0.03-0.023c-0.085,0.122-0.16,0.249-0.223,0.384
		c-0.948,3.485-0.771,6.775,1.673,9.671c-0.001,0-0.001,0.001-0.002,0.001c0.002,0.001,0.004,0.003,0.005,0.004
		c0.001,0.001,0.002,0.003,0.003,0.004c0,0,0-0.001,0-0.001c1.262,1.027,2.506,2.075,3.788,3.075
		c5.572,4.349,11.349-2.381,17.195,0.359c2.215,1.038,5.324,0.142,8.025,0.177c1.349,0.017,2.07-0.459,2.056-1.919
		c-0.051-5.278-0.056-9.557-0.079-14.836C140.668,28.637,140.585,28.345,140.651,27.303z"/>
	<path fill="#F95C27" d="M56.918,20.147c-0.363-2.55-1.921-4.078-4.169-5.221c-2.719-1.381-5.601-1.528-8.575-0.845
		c-2.569,0.59-4.681,2.065-6.919,3.309c-0.1,0.106-0.2,0.212-0.299,0.318c-0.622,0.834-1.146,0.37-1.657-0.132
		c-0.567-0.558-0.979-1.259-1.617-1.755c-3.122-2.426-6.686-2.324-10.274-1.654c-2.053,0.383-3.901,1.413-5.648,2.557
		c-0.629,0.412-1.291,0.576-1.381-0.298c-0.2-1.935-1.496-1.946-2.912-1.96c-2.882-0.029-5.765,0.105-8.646-0.073
		c-1.509,3.11-0.371,6.392-0.621,9.585c1.762,0.046,2.343-0.56,1.915-2.468c-0.462-2.063-1.708-5.065,2.184-5.085
		c2.629-0.013,6.419-2.034,7.266,2.845l0,0c-0.022,0.043-0.044,0.085-0.067,0.128c0.024-0.04,0.049-0.081,0.073-0.121
		c0.826-0.453,1.76,1.372,2.541-0.123c0.974-1.865,2.485-2.389,4.599-2.747c4.871-0.824,9.418-1.615,12.579,3.521
		c0.278,0.451,2.016,0.629,2.49,0.233c3.015-2.522,6.076-4.188,10.298-4.382c4.538-0.208,6.254,2.456,7.365,5.651
		c1.371,3.944-1.525,7.873-0.045,11.959c0.034,0.095,0.206,0.541,0.205,0.66c-0.018,1.765,0.273,3.605-0.139,5.271
		c-0.314,1.271,0.855,3.798-0.857,3.621c-2.04-0.211-3.478,1.138-5.191,1.402c-3.978,0.615-1.363-3.529-3.503-3.561
		c-0.158-0.002,2.079-0.311,0.912-1.66c-0.668,0.716-1.336,1.431-2.003,2.147c-0.83,4.031,0.421,6.025,4.888,5.331
		c1.86-0.289,3.802-0.072,5.706-0.044c1.321,0.02,1.889-0.586,1.882-1.9c-0.04-7.862-0.056-15.724-0.08-23.586
		C57.168,20.678,56.963,20.46,56.918,20.147z"/>
	<path fill="#F95C27" d="M97.475,21.185c-0.158-0.315-0.716-0.43-1.088-0.637c0.038,0.327-0.04,0.745,0.133,0.966
		c1.893,2.421,1.905,5.378,2.412,8.198c0.453,2.517-0.779,3.005-3.046,3.073c-1.515,0.045-2.651-1.181-4.513-0.421
		c-1.924,0.785-4.543,0.637-6.622,0.055c-2.209-0.618-4.77-0.779-6.126,0.196c-2.249,1.616,0.053,3.613,1.106,5.242
		c0.31,0.479,1.105,0.645,1.678,0.955c3.079,1.664,6.304,1.892,9.452,0.449c2.395-1.098,3.281,0.749,4.472,1.923
		c0.823,0.81,0.422,2.023-0.547,2.246c-5.003,1.15-9.706,3.077-15.271,1.029c-5.127-1.886-9.532-3.701-10.545-9.563
		c-0.325-1.882-0.557-2.441-2.048-0.872c0.02,0.303-0.006,0.619,0.068,0.908c2.957,11.615,20.933,17.064,30.22,9.173
		c0.814-0.692,1.154-1.403,0.388-2.329c-1.006-1.441-1.866-2.645-2.828-3.813c-0.919-1.116-1.791-1.755-3.289-1.129
		c-0.951,0.398-1.978,0.648-2.987,0.889c-2.872,0.685-5.615,0.617-7.892-1.618c-0.472-0.463-1.086-0.928-0.455-1.704
		c4.97-0.012,9.988-0.461,14.896,0.081c5.44,0.601,6.658-1.682,5.746-6.356C99.692,25.808,98.624,23.476,97.475,21.185z"/>
	<path fill="#F95C27" d="M154.495,30.982c0.723,0.179,1.446,0.359,2.169,0.538c-0.238-0.822-0.514-1.635-0.698-2.469
		c-0.093-0.423-0.205-1.095,0.013-1.284c0.592-0.513,1.386-1.03,0.561-1.717c-1.425-1.186-1.875-3.51-4.438-3.427
		c-4.061,0.133,0.352-3.76-2.023-4.532c0.244-0.484,0.494-1.391,0.732-1.388c3.242,0.043,6.121-0.025,5.687-4.687
		c-0.08-0.857-0.892-1.228-0.669-1.906c1.463-4.439,4.988-2.81,7.762-2.257c2.106,0.42,1.372,2.528,1.364,4.224
		c-0.007,1.496,0.643,3.14,1.441,4.452c0.736,1.21,1.731-0.28,2.4-0.553c1.509-0.617,1.019,0.359,1.123,0.965
		c-0.114,0.023-0.227,0.045-0.341,0.067c0.032,0.057,0.064,0.114,0.095,0.17c0.083-0.078,0.166-0.155,0.249-0.233
		c0.498-0.307,0.996-0.614,1.495-0.921c-0.082,0.619-0.168,1.238-0.244,1.858c-0.086,0.703-0.465,1.583-0.179,2.072
		c0.531,0.909,0.271,1.521-0.247,2.159c-1.493,1.837-4.407-0.457-5.724,1.944c-0.154-0.489-0.307-0.977-0.364-1.159
		c0,2.244-0.098,4.788,0.036,7.319c0.081,1.532,0.515,3.047,0.804,4.567c0.128,0.674,0.341,0.551,1.412-0.852
		c0.984-3.537-3.089-10.134,5.505-9.109c0.218,0.026,0.74-0.601,0.737-0.919c-0.031-3.097-0.144-6.194-0.234-9.291
		c-0.279,0.143-0.282,0.429-0.354,0.68c-1.14-1.556-2.806-0.74-4.246-0.926c-0.725-0.093-1.547,0.033-1.402-1.114
		c-0.107-2.461-0.214-4.922-0.321-7.383c-2.974-0.695-5.991-0.323-8.989-0.318c-0.947,0.001-1.974-0.333-2.873,0.294
		c-0.023,2.508-0.047,5.016-0.07,7.524c-0.219,1.095-1.092,0.924-1.869,0.993c-1.192,0.107-2.434-0.314-3.574,0.331
		c-0.083,0.112-0.153,0.233-0.206,0.363c-0.009,0.293-0.053,0.587-0.071,0.88c-0.013,0.198-0.025,0.397-0.022,0.596
		c0.003,0.203,0.099,0.372,0.109,0.568c0.009,0.184-0.083,0.348-0.088,0.53c-0.005,0.184,0.052,0.362,0.057,0.544
		c0.009,0.335,0.011,0.671-0.008,1.006c-0.035,0.604-0.114,1.203-0.169,1.805c-0.052,0.563-0.085,1.13-0.074,1.696
		c0.009,0.426,0.018,0.916,0.229,1.299c0.171,0.309,0.599,0.568,0.959,0.574C155.487,24.64,154.421,27.872,154.495,30.982z"/>
	<path fill="#F95C27" d="M149.198,14.814c0.005-0.003,0.01-0.004,0.016-0.007c0.002-0.003,0.004-0.007,0.006-0.011L149.198,14.814z"
		/>
	<path fill="#F95C27" d="M44.901,28.09c0.014,0.106,0.021,0.211,0.014,0.309c-0.021,0.273-0.09,0.528-0.097,0.805
		c-0.01,0.401,0.001,0.807,0.008,1.208c0.016,0.853,0.017,1.708,0.013,2.562c0,0.034,0.01,0.561-0.021,0.563
		c0.62-0.029,1.518,0.969,1.805-0.294c0.67-2.944,0.201-5.885-1.166-8.459c-1.672-3.15-5.171-2.79-7.497-1.787
		c-1.204,0.519-4.697,2.254-2.9,5.642c0.478,0.901,0.468,2.618-0.095,3.408c-1.546,2.172,1.019,4.308-0.431,6.645
		c-0.816,1.314,1.754,3.981-0.251,5.463c-1.5,1.109-3.983,0.528-5.633,0.341c-4.425-0.503-1.364-4.53-2.247-6.873
		c-1.226-3.252,1.871-7.375-1.901-10.231c-0.022,3.074-0.061,6.148-0.063,9.222c-0.004,9.944,0.001,9.908,9.967,9.965
		c1.887,0.011,2.65-0.549,2.612-2.525c-0.099-5.103,0.011-10.211-0.047-15.315c-0.035-3.088,1.977-4.074,4.463-4.291
		c0.816-0.071,1.66,0.045,2.306,0.581c0.447,0.371,0.707,0.887,0.857,1.439c0.09,0.33,0.158,0.665,0.198,1.004
		C44.818,27.666,44.873,27.882,44.901,28.09z"/>
	<path fill="#F95C27" d="M23.404,23.254c-2.462-1.263-5.098-0.814-6.772,0.592c-2.316,1.945-1.279,5.507-2.217,8.119
		c-1.491,4.154,3.826,9.548-2.35,12.623c-1.884,0.938-4.404,1.051-5.777-0.182c-0.855-0.768-1.72-3.194-0.514-5.041
		c0.406-0.622,1.355-1.296,0.484-2.073c-0.493-0.44-1.359-0.462-2.058-0.673c-0.002,1.849-0.004,3.699-0.005,5.548
		c0.205,0.242,0.21,0.485,0.004,0.73c-0.57,2.78,0.418,3.986,3.374,3.69c2.123-0.213,4.293-0.157,6.428-0.008
		c2.149,0.15,2.758-0.733,2.711-2.78c-0.113-4.9,0.045-9.806-0.076-14.705c-0.047-1.898,0.576-3.201,2.2-4.048
		c1.63-0.851,3.258-1.014,4.805,0.226C24.371,24.509,24.798,23.97,23.404,23.254z"/>
	<path fill="#F95C27" d="M173.548,43.637c-1-0.286-0.894-1.148-1.089-1.914c-0.125-0.489-0.578-1.246-0.917-1.264
		c-1.038-0.055-0.623,0.885-0.568,1.37c0.332,2.933-1.268,3.569-3.727,3.251c-3.048-0.394-6.481-0.062-9.031-1.404
		c-2.372-1.248-2.607-4.64-2.262-7.479c0.166-1.365,0.599-2.728-1.471-2.899c-0.717,11.812,6.737,17.401,17.352,13.017
		C173.042,45.815,174.143,45.278,173.548,43.637z"/>
	<path fill="#F95C27" d="M68.324,30.314c0.466-1.517,0.517-3.197,1.166-4.615c2.297-5.019,5.518-8.997,11.616-9.47
		c0.731-0.057,1.406-0.835,2.107-1.279c-0.882-0.136-1.783-0.463-2.642-0.375c-4.572,0.465-7.791,3.453-11.152,6.156
		c-2.542,3.393-3.206,7.251-2.816,11.371C67.818,32.131,68.075,31.125,68.324,30.314z"/>
	<path fill="#F95C27" d="M6.6,26.18c-0.316-1.208-1.589-0.413-2.402-0.637c0.001,3.45,0.001,6.9,0.002,10.35
		c0.875-0.472,3.473,0.805,2.517-0.922c-0.95-1.717-0.151-3.615-1.463-5.105c-0.509-0.578-0.292-1.931-0.158-2.896
		C5.197,26.251,7.104,28.106,6.6,26.18z"/>
	<path fill="#F95C27" d="M44.816,34.882c0.001,0.988,0.002,2.976,0.003,3.965c1.969-0.235,2.71-1.504,2.088-3.195
		C46.213,33.766,45.631,35.659,44.816,34.882z"/>
	<path fill="#F95C27" d="M128.078,25.978c-0.028,0.121,0.012,0.213,0.121,0.275C128.184,26.15,128.144,26.058,128.078,25.978z"/>
	<path fill="#F95C27" d="M54.803,29.303c-0.093-0.076-0.183-0.2-0.274-0.2c-0.091-0.001-0.183,0.122-0.274,0.19
		c0.119,0.087,0.231,0.188,0.362,0.249C54.638,29.552,54.74,29.391,54.803,29.303z"/>
	<path fill="#F95C27" d="M7.23,42.589c-0.037-0.012-0.093,0.033-0.141,0.053c0.036,0.068,0.076,0.193,0.109,0.192
		c0.092-0.004,0.182-0.062,0.273-0.106C7.393,42.675,7.316,42.618,7.23,42.589z"/>
	<path fill="#F95C27" d="M6.56,28.054c-0.037,0.009-0.074,0.019-0.111,0.028c0.012,0.041,0.024,0.082,0.048,0.161
		C6.524,28.159,6.542,28.106,6.56,28.054z"/>
	<path fill="#F95C27" d="M31.184,17.983c-0.07-0.01-0.14-0.014-0.21-0.017c0.032,0.029,0.062,0.077,0.096,0.08
		C31.105,18.05,31.145,18.01,31.184,17.983z"/>
	<path fill="#F95C27" d="M44.936,17.323c-0.028,0.031-0.076,0.061-0.079,0.095c-0.004,0.035,0.035,0.074,0.056,0.112
		c0.028-0.031,0.056-0.062,0.085-0.094C44.977,17.399,44.956,17.361,44.936,17.323z"/>
	<polygon fill="#F95C27" points="90.896,27.763 90.895,27.764 90.895,27.764 	"/>
	<path fill="#F95C27" d="M94.359,19.607c0.204,0.269,0.856,0.2,1.3,0.288c-0.116-0.395-0.118-0.891-0.365-1.17
		c-2.404-2.719-5.559-3.88-9.41-4.378c-0.389,0.151-1.045,0.406-1.702,0.662c0.675,0.315,1.341,0.649,2.026,0.942
		C88.94,17.121,92.296,16.883,94.359,19.607z"/>
	<path fill="#F95C27" d="M98.282,30.347c-0.042-0.023-0.083-0.045-0.125-0.068c0.041,0.023,0.081,0.047,0.122,0.07
		c0.041,0.023,0.083,0.045,0.124,0.068C98.363,30.394,98.322,30.371,98.282,30.347z"/>
	<path fill="#F95C27" d="M137.247,26.578c0.04,0.091,0.107,0.17,0.165,0.254c0.077-0.065,0.153-0.131,0.245-0.209
		c-0.123-0.07-0.209-0.13-0.305-0.165C137.332,26.451,137.237,26.556,137.247,26.578z"/>
	<path fill="#F95C27" d="M137.805,30.691c-0.078-0.144-0.13-0.241-0.183-0.338c-0.061,0.147-0.153,0.29-0.173,0.443
		c-0.012,0.089,0.09,0.193,0.141,0.29C137.666,30.947,137.742,30.808,137.805,30.691z"/>
	<path fill="#F95C27" d="M122.903,41.801c0.004-0.035-0.036-0.075-0.063-0.113c-0.01,0.069-0.014,0.139-0.018,0.209
		C122.851,41.865,122.899,41.836,122.903,41.801z"/>
	<path fill="#F95C27" d="M137.285,34.708c0.041,0.029,0.082,0.059,0.123,0.088l0,0c0.049,0.019,0.098,0.037,0.148,0.056
		c-0.039-0.029-0.078-0.057-0.117-0.086C137.388,34.746,137.336,34.727,137.285,34.708z"/>
	<path fill="#F95C27" d="M167.106,36.124c-0.317,0.333-0.698,0.554-0.682,0.743c0.243,2.881,3.026,1.726,4.477,2.716
		c0.035,0.024,0.817-0.673,0.777-0.97C171.278,35.666,168.26,37.933,167.106,36.124z"/>
	<path fill="#F95C27" d="M121.541,32.228c-1.275-0.076-3.752,0.389-3.726,2.802c0.051,4.65,3.632,6.25,7.185,6.547
		c1.84,0.154,3.885-2.145,5.539-3.154C129.694,32.822,125.459,32.461,121.541,32.228z M125.649,39.152
		c-1.204,0.163-2.444,0.154-3.65,0.012c-1.654-0.194-2.35-1.305-1.959-2.905c0.066-0.272,0.675-0.713,0.885-0.899
		c0.288-0.256,0.597-0.491,0.941-0.667c0.618-0.316,1.289-0.401,1.974-0.332c1.117,0.113,2.41,0.293,3.382,0.891
		C129.38,36.579,127.521,38.899,125.649,39.152z"/>
	<path fill="#F95C27" d="M83.835,20.73c-3.151,0.279-6.805,0.445-6.247,5.15c0.19,1.598,0.446,3.423,3.377,2.828
		c3.217-0.653,6.728,0.768,9.929-0.945C90.759,24.141,87.196,20.432,83.835,20.73z M86.878,26.647
		c-2.061,0.018-4.123,0.037-6.183-0.011c-0.602-0.014-1.569,0.182-1.095-1.04c1.328-2.195,3.283-3.094,5.757-2.496
		c1.598,0.386,3.244,0.943,3.206,3.115C88.113,26.79,87.465,26.642,86.878,26.647z"/>
</g>
</svg>
